<svg xmlns="http://www.w3.org/2000/svg" viewBox="0 0 120 120" fill="none">
  <rect width="120" height="120" rx="28" fill="#00DC82"/>
  <path d="M60 30C60 34.4183 56.4183 38 52 38C47.5817 38 44 34.4183 44 30C44 25.5817 47.5817 22 52 22C56.4183 22 60 25.5817 60 30Z" fill="white"/>
  <path d="M76 45C76 49.4183 72.4183 53 68 53C63.5817 53 60 49.4183 60 45C60 40.5817 63.5817 37 68 37C72.4183 37 76 40.5817 76 45Z" fill="white"/>
  <path d="M60 60C60 64.4183 56.4183 68 52 68C47.5817 68 44 64.4183 44 60C44 55.5817 47.5817 52 52 52C56.4183 52 60 55.5817 60 60Z" fill="white"/>
  <path d="M90 75C90 79.4183 86.4183 83 82 83C77.5817 83 74 79.4183 74 75C74 70.5817 77.5817 67 82 67C86.4183 67 90 70.5817 90 75Z" fill="white"/>
  <path d="M44 75C44 79.4183 40.4183 83 36 83C31.5817 83 28 79.4183 28 75C28 70.5817 31.5817 67 36 67C40.4183 67 44 70.5817 44 75Z" fill="white"/>
  <path d="M60 90C60 94.4183 56.4183 98 52 98C47.5817 98 44 94.4183 44 90C44 85.5817 47.5817 82 52 82C56.4183 82 60 85.5817 60 90Z" fill="white"/>
</svg>